<?xml version="1.0" standalone="no"?>
<!DOCTYPE svg PUBLIC "-//W3C//DTD SVG 20010904//EN"
 "http://www.w3.org/TR/2001/REC-SVG-20010904/DTD/svg10.dtd">
<svg version="1.0" xmlns="http://www.w3.org/2000/svg"
 width="683.000000pt" height="683.000000pt" viewBox="0 0 683.000000 683.000000"
 preserveAspectRatio="xMidYMid meet">
<metadata>
Created by potrace 1.11, written by Peter Selinger 2001-2013
</metadata>
<g transform="translate(0.000000,683.000000) scale(0.100000,-0.100000)"
fill="#000000" stroke="none">
<path d="M2650 6166 c-163 -35 -284 -170 -325 -362 -19 -92 -19 -285 1 -382
48 -237 205 -372 434 -372 120 0 215 35 293 109 l37 35 0 -782 0 -782 84 0 84
0 6 983 c4 540 6 1108 4 1262 l-3 280 -59 0 -60 0 -14 -65 c-8 -36 -16 -67
-18 -69 -2 -2 -26 17 -54 43 -106 99 -255 136 -410 102z m275 -150 c129 -54
183 -194 173 -450 -11 -266 -87 -365 -288 -374 -147 -7 -227 33 -280 142 -42
85 -53 159 -47 311 5 146 20 208 70 281 60 89 121 116 247 111 48 -3 102 -12
125 -21z"/>
<path d="M3765 6166 c-78 -19 -126 -46 -183 -103 -29 -29 -55 -53 -56 -53 -2
0 -7 27 -10 61 -11 90 -9 89 -82 89 l-64 0 0 -1265 0 -1265 85 0 85 0 0 781 0
781 41 -37 c69 -62 156 -97 258 -103 194 -11 333 62 414 216 123 234 92 618
-63 786 -95 102 -273 149 -425 112z m225 -162 c112 -61 164 -180 165 -379 0
-222 -62 -361 -187 -415 -44 -19 -65 -22 -142 -18 -107 5 -155 25 -208 88 -63
73 -95 228 -83 403 13 208 71 304 206 342 83 23 183 15 249 -21z"/>
<path d="M613 3278 c25 -631 303 -1254 767 -1718 407 -407 917 -663 1492 -749
l123 -19 -1147 -1 -1148 -1 0 -55 0 -55 2630 0 2630 0 0 55 0 55 -1227 1
c-773 1 -1206 5 -1168 10 350 53 605 132 885 274 263 134 499 311 714 536
l128 135 92 -24 c80 -20 109 -23 236 -19 132 3 154 6 242 36 125 43 224 101
316 186 373 346 375 917 3 1267 -70 66 -195 148 -258 169 -27 9 -33 16 -33 40
l0 29 -2642 0 -2641 0 6 -152z m5326 -365 c104 -106 151 -216 151 -353 0 -135
-47 -247 -147 -348 -73 -75 -174 -126 -278 -142 -58 -9 -145 -6 -145 5 0 2 19
36 42 77 108 189 215 473 265 703 15 69 31 125 36 125 5 0 39 -30 76 -67z"/>
</g>
</svg>
